<svg id="Layer_1" data-name="Layer 1" xmlns="http://www.w3.org/2000/svg" viewBox="0 0 187 186.9999"><defs><style>.cls-1{fill:#48494c;stroke:#fff;stroke-miterlimit:10;stroke-width:10px;}</style></defs><title>cross</title><path class="cls-1" d="M124.3535,93.5,175.61,42.2434a21.8166,21.8166,0,0,0,0-30.8532l0,0h0a21.8167,21.8167,0,0,0-30.8534,0L93.5,62.6465,42.2434,11.39a21.8167,21.8167,0,0,0-30.8534,0h0a21.8166,21.8166,0,0,0,0,30.8532l0,0L62.6465,93.5,11.39,144.7566a21.8166,21.8166,0,0,0,0,30.8532l0,0h0a21.8166,21.8166,0,0,0,30.8532,0l0,0L93.5,124.3535,144.7566,175.61a21.8166,21.8166,0,0,0,30.8532,0l0,0h0a21.8166,21.8166,0,0,0,0-30.8532l0,0Z" transform="translate(0 -0.0001)"/></svg>